<?xml version="1.0" encoding="UTF-8" standalone="no"?>
<!-- Created with Inkscape (http://www.inkscape.org/) -->

<svg
   version="1.1"
   id="svg1"
   width="1368"
   height="246.66667"
   viewBox="0 0 1368 246.66667"
   sodipodi:docname="MARCA BLANCO_HORIZONTAL.eps"
   xmlns:inkscape="http://www.inkscape.org/namespaces/inkscape"
   xmlns:sodipodi="http://sodipodi.sourceforge.net/DTD/sodipodi-0.dtd"
   xmlns="http://www.w3.org/2000/svg"
   xmlns:svg="http://www.w3.org/2000/svg">
  <defs
     id="defs1" />
  <sodipodi:namedview
     id="namedview1"
     pagecolor="#ffffff"
     bordercolor="#000000"
     borderopacity="0.25"
     inkscape:showpageshadow="2"
     inkscape:pageopacity="0.0"
     inkscape:pagecheckerboard="0"
     inkscape:deskcolor="#d1d1d1">
    <inkscape:page
       x="0"
       y="0"
       inkscape:label="1"
       id="page1"
       width="1368"
       height="246.66667"
       margin="0"
       bleed="0" />
  </sodipodi:namedview>
  <g
     id="g1"
     inkscape:groupmode="layer"
     inkscape:label="1">
    <path
       id="path1"
       d="m 4651.9,1255.08 -76.76,-141.48 h -362.79 c -36.38,0 -72.19,-2.36 -107.42,-7.07 -35.23,-4.72 -67.2,-11.79 -95.89,-21.23 -28.7,-9.42 -53.73,-21.72 -75.09,-36.88 -21.36,-15.16 -37.53,-32.84 -48.49,-53.053 h 625.52 L 4434.22,853.891 H 3806.67 L 3663.55,590.137 h -214.23 l 203.43,374.914 c 24.13,44.469 55.98,84.549 95.57,120.249 39.58,35.71 86.44,66.2 140.57,91.46 54.13,25.27 115,44.63 182.6,58.11 67.61,13.47 141.5,20.21 221.67,20.21 h 358.74"
       style="fill:#ffffff;fill-opacity:1;fill-rule:nonzero;stroke:none"
       transform="matrix(0.13333333,0,0,-0.13333333,0,246.66667)" />
    <path
       id="path2"
       d="m 5192.37,681.09 h -555.8 l -99.87,-90.953 h -233.44 l 653.47,572.983 c 36.41,32.33 78.08,55.75 125.02,70.23 46.93,14.49 95.66,21.73 146.19,21.73 51.2,0 92.24,-7.24 123.12,-21.73 30.88,-14.48 46.98,-37.9 48.29,-70.23 l 31.68,-572.983 h -231.42 z m -18.64,416.34 c -1.93,10.11 -9.63,15.16 -23.1,15.16 -14.83,0 -28.34,-5.05 -40.56,-15.16 L 4797.21,822.566 h 389.06 l -12.54,274.864"
       style="fill:#ffffff;fill-opacity:1;fill-rule:nonzero;stroke:none"
       transform="matrix(0.13333333,0,0,-0.13333333,0,246.66667)" />
    <path
       id="path3"
       d="M 7066.94,1113.62 6782.91,590.141 h -215.25 l 284.03,523.479 c -276.37,0 -552.74,0 -829.12,0 -29.64,0 -57.94,-5.9 -84.88,-17.69 -26.94,-11.79 -44.81,-25.77 -53.58,-41.94 -8.77,-16.17 -5.99,-29.98 8.34,-41.43 14.34,-11.45 36.66,-17.177 66.98,-17.177 h 296.1 c 107.12,0 182.77,-17.016 226.97,-51.035 44.2,-34.02 48.01,-84.723 11.46,-152.094 -36.56,-67.371 -94.8,-117.902 -174.72,-151.586 -79.92,-33.688 -175.47,-50.527 -286.63,-50.527 h -561.88 l 76.77,141.48 h 597.25 c 30.32,0 57.6,5.895 81.85,17.688 24.25,11.789 40.95,26.101 50.09,42.945 10.84,20.012 8.09,32.266 -3.94,43.961 -12.13,11.789 -32.68,17.683 -61.65,17.683 h -300.14 c -65.35,0 -116.89,5.899 -154.62,17.688 -37.73,11.789 -65.38,27.285 -82.91,46.488 -17.54,19.199 -25.8,40.926 -24.77,65.18 1.04,24.256 8.13,48.506 21.3,72.766 14.25,26.27 34.44,51.37 60.55,75.28 26.12,23.92 58.35,45.14 96.7,63.67 38.35,18.52 82.68,33.18 132.99,43.96 50.32,10.78 106.46,16.17 168.45,16.17 420.88,0 841.77,0 1262.65,0 l -76.77,-141.48 h -247.59"
       style="fill:#ffffff;fill-opacity:1;fill-rule:nonzero;stroke:none"
       transform="matrix(0.13333333,0,0,-0.13333333,0,246.66667)" />
    <path
       id="path4"
       d="m 7562.04,590.137 c -80.16,0 -146.75,6.738 -199.73,20.215 -52.99,13.472 -92.83,32.839 -119.55,58.105 -26.71,25.262 -40.49,55.746 -41.32,91.453 -0.84,35.707 10.8,75.789 34.93,120.254 l 203.43,374.916 h 214.23 L 7450.05,879.152 c -25.22,-46.48 -22.12,-82.695 9.27,-108.632 31.4,-25.934 89.88,-38.903 175.45,-38.903 h 338.53 l -76.76,-141.48 h -334.5"
       style="fill:#ffffff;fill-opacity:1;fill-rule:nonzero;stroke:none"
       transform="matrix(0.13333333,0,0,-0.13333333,0,246.66667)" />
    <path
       id="path5"
       d="M 8798.8,681.09 H 8243 l -99.87,-90.953 h -233.44 l 653.47,572.983 c 36.41,32.33 78.09,55.75 125.02,70.23 46.94,14.49 95.67,21.73 146.2,21.73 51.19,0 92.24,-7.24 123.11,-21.73 30.88,-14.48 46.97,-37.9 48.3,-70.23 l 31.67,-572.983 h -231.41 z m -18.64,416.34 c -1.93,10.11 -9.63,15.16 -23.1,15.16 -14.83,0 -28.34,-5.05 -40.56,-15.16 L 8403.64,822.566 h 389.07 l -12.55,274.864"
       style="fill:#ffffff;fill-opacity:1;fill-rule:nonzero;stroke:none"
       transform="matrix(0.13333333,0,0,-0.13333333,0,246.66667)" />
    <path
       id="path6"
       d="m 9990.63,1255.08 c 61.27,0 111.27,-5.39 149.87,-16.17 38.6,-10.78 67.1,-25.27 85.6,-43.46 18.4,-18.18 27.5,-39.57 27.3,-64.16 -0.2,-24.59 -7.8,-50.7 -22.8,-78.32 -13.1,-24.26 -32.5,-48.17 -58.1,-71.751 -25.6,-23.578 -57.2,-44.801 -94.7,-63.664 -37.5,-18.864 -81.87,-34.188 -133.07,-45.977 -51.19,-11.789 -108.46,-17.687 -171.78,-17.687 h -331.47 l -143.1,-263.754 h -214.24 l 360.8,664.943 z M 9582.4,1113.6 9518.25,995.367 H 9877 c 29.64,0 58.01,5.723 85.11,17.183 27.1,11.45 45.19,25.59 54.39,42.44 8.4,15.49 5.3,29.14 -9.2,40.92 -14.44,11.8 -36.17,17.69 -65.14,17.69 H 9582.4"
       style="fill:#ffffff;fill-opacity:1;fill-rule:nonzero;stroke:none"
       transform="matrix(0.13333333,0,0,-0.13333333,0,246.66667)" />
    <path
       id="path7"
       d="m 10209.8,413.402 h -181.4 l 0.4,-165.242 h 181.3 l -0.1,63.981 h -93.7 v 32.269 h 136.9 l 0.2,-76.219 c 0,-21.515 -3.8,-36.164 -11.6,-43.953 -7.9,-7.793 -22.7,-11.687 -44.6,-11.687 h -155.4 c -21.8,0 -36.7,3.804 -44.55,11.5 -7.86,7.695 -11.78,22.441 -11.82,44.14 l -0.27,124.164 c -0.04,21.606 3.9,36.348 11.82,44.227 7.92,7.883 22.62,11.871 44.32,11.871 h 155.4 c 21.3,0 36,-3.894 44.2,-11.683 8.1,-7.79 12.2,-21.512 12.2,-41.172 v -6.77 l -43.2,-7.695 -0.1,32.269"
       style="fill:#ffffff;fill-opacity:1;fill-rule:nonzero;stroke:none"
       transform="matrix(0.13333333,0,0,-0.13333333,0,246.66667)" />
    <path
       id="path8"
       d="m 9652.04,401.16 c 1.1,-6.859 1.84,-13.816 2.39,-20.957 0.55,-7.047 0.84,-14.094 0.86,-21.14 l 0.3,-146.512 h -40.05 l -0.5,235.902 h 33.02 l 168.78,-154.117 c 4.88,-4.356 9.58,-9.082 14.11,-14.371 4.52,-5.285 8.95,-11.219 13.39,-17.988 -1.28,7.14 -2.2,14.277 -2.85,21.511 -0.65,7.235 -0.93,14.742 -0.94,22.535 l -0.31,142.43 h 40.06 l 0.5,-235.902 h -29.59 L 9679,368.801 c -5.97,5.84 -11.12,11.308 -15.47,16.504 -4.33,5.101 -8.14,10.386 -11.49,15.855"
       style="fill:#ffffff;fill-opacity:1;fill-rule:nonzero;stroke:none"
       transform="matrix(0.13333333,0,0,-0.13333333,0,246.66667)" />
    <path
       id="path9"
       d="m 9506.46,212.551 h -43.31 l -0.49,235.344 h 43.3 l 0.5,-235.344"
       style="fill:#ffffff;fill-opacity:1;fill-rule:nonzero;stroke:none"
       transform="matrix(0.13333333,0,0,-0.13333333,0,246.66667)" />
    <path
       id="path10"
       d="m 9128.42,212.551 -0.49,235.902 h 184.51 c 17.14,0 29.51,-3.617 37.01,-10.758 7.51,-7.14 11.32,-18.73 11.35,-34.863 l 0.12,-52.855 c 0.03,-15.95 -3.73,-27.45 -11.21,-34.497 -7.47,-7.046 -19.83,-10.57 -36.97,-10.57 h -30.4 l 101.6,-92.359 h -57.92 l -91.78,92.359 h -62.7 l 0.19,-92.359 z m 165.06,201.41 h -122.17 l 0.16,-76.227 h 122.17 c 9.65,0 16.14,1.672 19.47,4.918 3.34,3.246 5.03,9.641 5.02,19.008 l -0.06,28.375 c -0.02,8.715 -1.84,14.836 -5.37,18.453 -3.52,3.614 -9.93,5.473 -19.22,5.473"
       style="fill:#ffffff;fill-opacity:1;fill-rule:nonzero;stroke:none"
       transform="matrix(0.13333333,0,0,-0.13333333,0,246.66667)" />
    <path
       id="path11"
       d="m 8809.84,212.551 -0.49,235.902 h 231.16 l 0.07,-35.051 h -187.85 l 0.13,-60.644 H 8966 l 0.07,-35.051 h -113.14 l 0.14,-70.66 h 190.02 l 0.08,-34.496 h -233.33"
       style="fill:#ffffff;fill-opacity:1;fill-rule:nonzero;stroke:none"
       transform="matrix(0.13333333,0,0,-0.13333333,0,246.66667)" />
    <path
       id="path12"
       d="m 8491.26,212.551 -0.5,235.902 h 231.17 l 0.07,-35.051 h -187.85 l 0.12,-60.644 h 113.15 l 0.07,-35.051 h -113.14 l 0.15,-70.66 h 190.01 l 0.08,-34.496 h -233.33"
       style="fill:#ffffff;fill-opacity:1;fill-rule:nonzero;stroke:none"
       transform="matrix(0.13333333,0,0,-0.13333333,0,246.66667)" />
    <path
       id="path13"
       d="m 8152.34,401.16 c 1.1,-6.859 1.84,-13.816 2.39,-20.957 0.56,-7.047 0.84,-14.094 0.86,-21.14 l 0.31,-146.512 h -40.06 l -0.5,235.902 h 33.02 l 168.78,-154.117 c 4.88,-4.356 9.58,-9.082 14.11,-14.371 4.52,-5.285 8.95,-11.219 13.39,-17.988 -1.28,7.14 -2.2,14.277 -2.84,21.511 -0.65,7.235 -0.94,14.742 -0.96,22.535 l -0.29,142.43 h 40.06 l 0.5,-235.902 h -29.6 l -172.21,156.25 c -5.97,5.84 -11.12,11.308 -15.46,16.504 -4.34,5.101 -8.14,10.386 -11.5,15.855"
       style="fill:#ffffff;fill-opacity:1;fill-rule:nonzero;stroke:none"
       transform="matrix(0.13333333,0,0,-0.13333333,0,246.66667)" />
    <path
       id="path14"
       d="m 8006.76,212.551 h -43.31 l -0.49,235.344 h 43.31 l 0.49,-235.344"
       style="fill:#ffffff;fill-opacity:1;fill-rule:nonzero;stroke:none"
       transform="matrix(0.13333333,0,0,-0.13333333,0,246.66667)" />
    <path
       id="path15"
       d="m 7820.84,413.402 h -181.35 l 0.35,-165.242 h 181.35 l -0.14,63.981 h -93.65 l -0.07,32.269 h 136.97 l 0.16,-76.219 c 0.04,-21.515 -3.8,-36.164 -11.64,-43.953 -7.83,-7.793 -22.71,-11.687 -44.54,-11.687 h -155.47 c -21.74,0 -36.64,3.804 -44.51,11.5 -7.86,7.695 -11.77,22.441 -11.82,44.14 l -0.25,124.164 c -0.05,21.606 3.89,36.348 11.81,44.227 7.92,7.883 22.62,11.871 44.28,11.871 h 155.46 c 21.29,0 36.01,-3.894 44.15,-11.683 8.13,-7.79 12.22,-21.512 12.26,-41.172 l 0.01,-6.77 -43.29,-7.695 -0.07,32.269"
       style="fill:#ffffff;fill-opacity:1;fill-rule:nonzero;stroke:none"
       transform="matrix(0.13333333,0,0,-0.13333333,0,246.66667)" />
    <path
       id="path16"
       d="m 7263.09,401.16 c 1.11,-6.859 1.84,-13.816 2.4,-20.957 0.55,-7.047 0.84,-14.094 0.85,-21.14 l 0.31,-146.512 h -40.06 l -0.5,235.902 h 33.03 L 7427.9,294.336 c 4.88,-4.356 9.58,-9.082 14.1,-14.371 4.52,-5.285 8.96,-11.219 13.39,-17.988 -1.27,7.14 -2.19,14.277 -2.84,21.511 -0.65,7.235 -0.93,14.742 -0.95,22.535 l -0.3,142.43 h 40.06 l 0.5,-235.902 h -29.59 l -172.22,156.25 c -5.96,5.84 -11.12,11.308 -15.46,16.504 -4.34,5.101 -8.14,10.386 -11.5,15.855"
       style="fill:#ffffff;fill-opacity:1;fill-rule:nonzero;stroke:none"
       transform="matrix(0.13333333,0,0,-0.13333333,0,246.66667)" />
    <path
       id="path17"
       d="m 6908.01,212.551 -0.49,235.902 h 231.15 l 0.08,-35.051 H 6950.9 l 0.13,-60.644 h 113.14 l 0.07,-35.051 H 6951.1 l 0.15,-70.66 h 190.01 l 0.08,-34.496 h -233.33"
       style="fill:#ffffff;fill-opacity:1;fill-rule:nonzero;stroke:none"
       transform="matrix(0.13333333,0,0,-0.13333333,0,246.66667)" />
    <path
       id="path18"
       d="m 6208.7,401.16 c 1.09,-6.859 1.83,-13.816 2.39,-20.957 0.55,-7.047 0.84,-14.094 0.85,-21.14 l 0.31,-146.512 h -40.06 l -0.49,235.902 h 33.02 L 6373.5,294.336 c 4.88,-4.356 9.58,-9.082 14.1,-14.371 4.53,-5.285 8.96,-11.219 13.4,-17.988 -1.29,7.14 -2.21,14.277 -2.85,21.511 -0.65,7.235 -0.94,14.742 -0.95,22.535 l -0.3,142.43 h 40.06 l 0.5,-235.902 h -29.6 l -172.2,156.25 c -5.98,5.84 -11.13,11.308 -15.47,16.504 -4.34,5.101 -8.14,10.386 -11.49,15.855"
       style="fill:#ffffff;fill-opacity:1;fill-rule:nonzero;stroke:none"
       transform="matrix(0.13333333,0,0,-0.13333333,0,246.66667)" />
    <path
       id="path19"
       d="m 5788.81,392.445 c -0.04,21.606 3.89,36.352 11.82,44.231 7.92,7.883 22.62,11.777 44.36,11.777 h 165.66 c 21.75,0 36.46,-3.894 44.42,-11.777 7.95,-7.879 11.95,-22.625 12,-44.231 l 0.26,-124.164 c 0.05,-21.605 -3.8,-36.254 -11.63,-44.043 -7.84,-7.793 -22.72,-11.687 -44.56,-11.687 h -165.65 c -22.01,0 -36.92,3.894 -44.69,11.594 -7.78,7.695 -11.68,22.347 -11.73,44.136 z m 43.61,-144.285 h 191.65 l -0.36,165.242 h -191.64 l 0.35,-165.242"
       style="fill:#ffffff;fill-opacity:1;fill-rule:nonzero;stroke:none"
       transform="matrix(0.13333333,0,0,-0.13333333,0,246.66667)" />
    <path
       id="path20"
       d="m 5685.52,212.551 h -43.31 l -0.49,235.344 h 43.31 l 0.49,-235.344"
       style="fill:#ffffff;fill-opacity:1;fill-rule:nonzero;stroke:none"
       transform="matrix(0.13333333,0,0,-0.13333333,0,246.66667)" />
    <path
       id="path21"
       d="m 5465.14,413.402 0.42,-200.851 h -43.31 l -0.42,200.851 h -108.27 l -0.08,35.051 h 260.4 l 0.07,-35.051 h -108.81"
       style="fill:#ffffff;fill-opacity:1;fill-rule:nonzero;stroke:none"
       transform="matrix(0.13333333,0,0,-0.13333333,0,246.66667)" />
    <path
       id="path22"
       d="m 5003.89,212.551 132.13,235.902 h 39.61 l 136.29,-235.902 h -47.01 l -29.98,55.082 H 5076.4 l -29.2,-55.082 z m 90.67,89.019 h 121.8 l -61.22,112.297 z"
       style="fill:#ffffff;fill-opacity:1;fill-rule:nonzero;stroke:none"
       transform="matrix(0.13333333,0,0,-0.13333333,0,246.66667)" />
    <path
       id="path23"
       d="m 4727.62,212.551 -0.49,235.902 h 43.3 l 0.43,-200.293 h 178.64 l 0.08,-35.609 h -221.96"
       style="fill:#ffffff;fill-opacity:1;fill-rule:nonzero;stroke:none"
       transform="matrix(0.13333333,0,0,-0.13333333,0,246.66667)" />
    <path
       id="path24"
       d="m 4405.3,448.453 0.42,-200.293 h 167.82 l -0.42,200.293 h 43.85 l 0.38,-180.172 c 0.04,-21.789 -3.8,-36.441 -11.64,-44.136 -7.83,-7.7 -22.71,-11.594 -44.54,-11.594 h -142.38 c -21.84,0 -36.73,3.894 -44.6,11.687 -7.87,7.789 -11.78,22.438 -11.82,44.043 l -0.38,180.172 h 43.31"
       style="fill:#ffffff;fill-opacity:1;fill-rule:nonzero;stroke:none"
       transform="matrix(0.13333333,0,0,-0.13333333,0,246.66667)" />
    <path
       id="path25"
       d="m 3990.9,404.684 c 0.01,-3.43 0.19,-8.157 0.57,-14.094 0.38,-9.828 0.57,-16.039 0.58,-18.731 l 0.33,-159.308 h -35.72 l -0.5,235.902 h 35.73 l 114.55,-153 104.7,153 h 40.06 l 0.5,-235.902 h -40.06 l -0.34,159.308 c -0.01,5.75 0.16,11.407 0.59,16.786 0.45,5.468 1.16,10.757 1.96,15.761 -2.42,-7.418 -4.93,-14 -7.63,-19.656 -2.6,-5.75 -5.03,-10.016 -7.37,-12.891 l -88.07,-122.031 h -11.37 l -91.75,120.922 c -3.17,4.172 -6.15,9.082 -9.05,14.648 -2.81,5.657 -5.35,12.055 -7.71,19.286"
       style="fill:#ffffff;fill-opacity:1;fill-rule:nonzero;stroke:none"
       transform="matrix(0.13333333,0,0,-0.13333333,0,246.66667)" />
    <path
       id="path26"
       d="m 3847.58,212.551 h -43.31 l -0.49,235.344 h 43.31 l 0.49,-235.344"
       style="fill:#ffffff;fill-opacity:1;fill-rule:nonzero;stroke:none"
       transform="matrix(0.13333333,0,0,-0.13333333,0,246.66667)" />
    <path
       id="path27"
       d="m 3658.42,413.402 h -160.79 l 0.13,-61.199 h 147.07 c 21.56,0 36.28,-3.898 44.15,-11.594 7.86,-7.695 11.86,-22.347 11.91,-44.136 l 0.06,-28.192 c 0.04,-21.789 -3.8,-36.441 -11.46,-44.136 -7.65,-7.7 -22.44,-11.594 -44.37,-11.594 h -139.4 c -21.92,0 -36.73,3.894 -44.59,11.594 -7.87,7.695 -11.87,22.347 -11.92,44.136 l -0.01,6.492 39.5,8.438 0.07,-35.051 h 173.24 l -0.14,66.207 h -147.7 c -21.65,0 -36.46,3.895 -44.23,11.59 -7.78,7.699 -11.69,22.348 -11.74,44.141 l -0.04,22.257 c -0.05,21.606 3.8,36.348 11.54,44.227 7.75,7.883 22.53,11.871 44.19,11.871 h 127.58 c 21.38,0 36.1,-3.805 44.23,-11.406 8.14,-7.695 12.23,-21.051 12.27,-40.336 l 0.01,-5.75 -39.5,-8.715 -0.06,31.156"
       style="fill:#ffffff;fill-opacity:1;fill-rule:nonzero;stroke:none"
       transform="matrix(0.13333333,0,0,-0.13333333,0,246.66667)" />
    <path
       id="path28"
       d="M 6.90234,0.878906 785.023,1461.98 c 101.27,195.8 286.127,377.26 577.927,378.65 h 1314.78 c -65.28,-122.57 -219.12,-411.59 -284.39,-534.18 H 1261.96 c -114.81,0 -201.52,-21.47 -275.499,-153.66 C 752.57,713.344 607.059,440.883 375.797,0.878906 c -563.953,0 195.058,0 -368.89466,0 z M 3166.37,1844.36 2388.25,383.254 C 2286.98,187.465 2102.12,5.99609 1810.32,4.60547 H 495.547 C 560.816,127.18 699.32,387.355 764.586,509.934 H 1895.97 c 114.8,0 201.51,21.468 275.49,153.664 233.88,439.452 394.75,740.762 626.01,1180.762 563.96,0 -195.06,0 368.9,0"
       style="fill:#ffffff;fill-opacity:1;fill-rule:nonzero;stroke:none"
       transform="matrix(0.13333333,0,0,-0.13333333,0,246.66667)" />
  </g>
</svg>
